HIERARCHY
ROOT Hips
{
	OFFSET -0.179506 -22.333345 2.821913
	CHANNELS 6 Xposition Yposition Zposition Zrotation Yrotation Xrotation 
	JOINT LeftUpLeg
	{
		OFFSET 6.951974 -9.140623 -0.681533
		CHANNELS 3 Zrotation Yrotation Xrotation
		JOINT LeftLeg
		{
			OFFSET 3.427654 -37.519855 -0.449580
			CHANNELS 3 Zrotation Yrotation Xrotation
			JOINT LeftFoot
			{
				OFFSET -1.359570 -39.796059 -4.369333
				CHANNELS 3 Zrotation Yrotation Xrotation
				JOINT LeftToe
				{
					OFFSET 2.635814 -5.579078 11.928840
					CHANNELS 3 Zrotation Yrotation Xrotation
					End Site
					{
						OFFSET 0.000000 0.000000 0.000000
					}
				}
			}
		}
	}
	JOINT RightUpLeg
	{
		OFFSET -6.767048 -9.052170 -0.431982
		CHANNELS 3 Zrotation Yrotation Xrotation
		JOINT RightLeg
		{
			OFFSET -3.829005 -38.256897 -0.885003
			CHANNELS 3 Zrotation Yrotation Xrotation
			JOINT RightFoot
			{
				OFFSET 1.577377 -39.841461 -4.231180
				CHANNELS 3 Zrotation Yrotation Xrotation
				JOINT RightToe
				{
					OFFSET -2.537174 -4.814398 12.334795
					CHANNELS 3 Zrotation Yrotation Xrotation
					End Site
					{
						OFFSET 0.000000 0.000000 0.000000
					}
				}
			}
		}
	}
	JOINT Spine
	{
		OFFSET -0.253288 10.896323 -2.669631
		CHANNELS 3 Zrotation Yrotation Xrotation
		JOINT Spine1
		{
			OFFSET 0.548704 13.518043 0.109247
			CHANNELS 3 Zrotation Yrotation Xrotation
			JOINT Spine2
			{
				OFFSET 0.145701 5.292222 2.542457
				CHANNELS 3 Zrotation Yrotation Xrotation
				JOINT Neck
				{
					OFFSET -0.277840 21.387037 -4.285703
					CHANNELS 3 Zrotation Yrotation Xrotation
					JOINT Head
					{
						OFFSET 0.515184 6.496960 5.134897
						CHANNELS 3 Zrotation Yrotation Xrotation
						End Site
						{
							OFFSET 0.000000 0.000000 0.000000
						}
					}
				}
				JOINT LeftShoulder
				{
					OFFSET 7.884473 12.174932 -3.408961
					CHANNELS 3 Zrotation Yrotation Xrotation
					JOINT LeftArm
					{
						OFFSET 9.097692 3.046888 -0.886815
						CHANNELS 3 Zrotation Yrotation Xrotation
						JOINT LeftForeArm
						{
							OFFSET 25.961220 -1.277207 -2.745643
							CHANNELS 3 Zrotation Yrotation Xrotation
							JOINT LeftHand
							{
								OFFSET 24.923361 0.898606 -0.117091
								CHANNELS 3 Zrotation Yrotation Xrotation
								End Site
								{
									OFFSET 0.000000 0.000000 0.000000
								}
							}
						}
					}
				}
				JOINT RightShoulder
				{
					OFFSET -8.175920 11.883285 -3.861528
					CHANNELS 3 Zrotation Yrotation Xrotation
					JOINT RightArm
					{
						OFFSET -9.601238 3.255117 -0.914307
						CHANNELS 3 Zrotation Yrotation Xrotation
						JOINT RightForeArm
						{
							OFFSET -25.374195 -1.332924 -2.140099
							CHANNELS 3 Zrotation Yrotation Xrotation
							JOINT RightHand
							{
								OFFSET -25.529810 0.777228 -0.555919
								CHANNELS 3 Zrotation Yrotation Xrotation
								End Site
								{
									OFFSET 0.000000 0.000000 0.000000
								}
							}
						}
					}
				}
			}
		}
	}
}
MOTION
Frames: 15
Frame Time: 0.033333
-21.625799 -32.686707 81.647354 -127.047421 10.534449 75.785273 11.887067 -0.612015 -25.054434 -8.557661 3.117133 58.267645 6.846207 5.968885 -27.324211 nan nan nan -17.809122 -7.538079 -14.662517 5.078791 2.002398 21.540044 8.512025 -0.971450 13.459984 nan nan nan 2.857163 5.328316 16.891371 8.258593 -4.128714 4.966242 2.124911 -1.069850 -0.272934 0.261576 -23.002276 8.463495 3.069811 -23.873101 6.984388 -21.540093 -11.976682 -0.923080 -54.572737 -36.676037 27.963931 72.365850 -84.965609 -57.695999 -9.385726 -20.669845 -3.731491 20.513075 5.790958 -10.928835 36.671598 1.426583 -2.667926 -44.679709 51.268650 -47.430660 17.880718 1.744206 -8.965969 
-21.395241 -31.409571 81.308250 -126.330571 10.499900 75.526361 12.587373 -0.885135 -25.263447 -8.366724 3.413694 59.983353 6.233432 5.624875 -28.127520 nan nan nan -17.638228 -6.528177 -15.031041 4.865147 1.030092 24.619393 8.455508 -1.077006 9.173026 nan nan nan 2.761050 4.980309 17.672574 8.118654 -4.146454 4.348812 2.191423 -0.949152 0.216940 0.476454 -22.791404 7.685828 3.251981 -24.278692 7.342147 -20.837338 -12.359119 -1.657517 -55.711130 -36.926332 28.508385 77.499437 -84.722011 -62.001173 -9.896166 -21.013661 -4.281057 20.761139 6.606194 -11.412439 36.076482 1.870971 -2.897920 -46.014380 50.135167 -48.266429 18.062637 2.393491 -8.592027 
-21.195322 -30.131056 80.935143 -125.362181 10.296701 75.286303 13.086571 -1.328881 -25.423887 -8.317000 3.698701 61.442888 5.802411 5.394718 -28.759365 nan nan nan -17.868993 -6.102176 -15.243907 4.680329 -0.538450 28.065133 8.394702 -0.876929 5.199110 nan nan nan 2.375947 4.611542 18.467977 8.065458 -4.176637 4.101952 2.399903 -0.912311 0.039467 0.702679 -22.747045 7.633659 3.325747 -24.371573 6.947346 -20.348610 -12.512836 -1.952722 -56.883040 -37.382471 28.962168 81.188242 -84.551594 -65.174095 -10.591527 -21.336696 -4.440515 20.799545 7.194127 -11.473698 35.689622 2.468300 -3.148079 -47.561497 49.075979 -49.288206 17.960800 2.987487 -8.340964 
-20.972609 -28.876709 80.541428 -124.245476 10.041692 75.162245 13.441061 -1.687711 -25.733354 -8.386661 3.800791 62.776436 5.423755 5.269916 -29.162647 nan nan nan -18.255756 -6.028365 -15.443805 4.487707 -2.279280 31.315949 8.023351 -0.368256 1.371586 nan nan nan 1.944440 4.336027 19.347006 8.052497 -4.299366 3.424223 2.607213 -0.976479 0.191015 0.717176 -22.884728 7.662890 3.676129 -24.481657 6.531644 -20.025066 -12.480978 -1.981168 -58.040762 -38.182874 29.385780 83.939130 -84.512647 -67.583192 -10.974627 -21.718785 -4.418499 20.852401 7.567803 -11.552254 35.229857 3.293743 -3.500690 -48.792756 48.261809 -50.067819 17.722800 3.380704 -7.867055 
-20.698603 -27.616337 80.105507 -123.146508 9.915618 75.158673 13.930698 -1.812444 -26.280346 -8.526077 3.740105 64.107029 5.082596 5.146161 -29.442769 nan nan nan -18.514753 -6.227364 -15.837434 4.458871 -3.829778 34.374838 7.395115 0.164637 -1.999092 nan nan nan 1.671118 4.055578 20.154583 8.032754 -4.468952 2.796073 2.768441 -0.999511 0.260561 0.772055 -23.083874 7.528083 3.956702 -24.623003 6.354062 -19.741919 -12.535668 -1.861172 -58.766065 -39.042308 29.642675 87.936611 -84.557450 -71.215942 -10.902628 -21.781194 -4.839951 20.861637 7.948948 -11.454837 34.780462 4.051720 -3.984310 -50.023156 47.639895 -50.868362 17.378218 3.537802 -7.477995 
-20.378222 -26.353817 79.649803 -122.088330 9.845115 75.179344 14.548987 -1.774585 -26.881112 -8.770426 3.603384 65.348472 4.852416 4.878959 -29.693539 nan nan nan -18.717933 -6.627874 -16.362735 4.741051 -4.709138 37.274964 6.637374 0.479703 -4.754792 nan nan nan 1.486043 3.786544 20.921096 8.002882 -4.680988 2.452134 2.849623 -1.032155 0.070384 1.058232 -23.148146 7.055974 3.896589 -24.868573 6.639004 -19.398573 -12.568330 -1.904506 -59.414167 -39.781529 30.027698 91.795727 -84.605845 -74.626810 -10.710905 -21.926732 -5.455242 20.935678 8.398227 -11.278573 34.278191 4.800609 -4.337215 -51.245418 46.936491 -51.718850 16.884354 3.736359 -7.543542 
-20.032406 -25.122522 79.215424 -121.065768 9.809540 75.188202 15.227900 -1.740082 -27.514770 -9.059498 3.488650 66.605781 4.576680 4.538808 -29.912501 nan nan nan -18.755314 -7.249390 -16.917628 5.117108 -4.853535 39.974224 5.807257 0.470556 -7.084451 nan nan nan 1.330857 3.614788 21.628228 8.053022 -4.993200 2.265663 2.970426 -1.011071 -0.149537 1.307551 -23.329903 6.530334 3.775232 -24.984661 6.943622 -19.301929 -12.750160 -1.955344 -60.101999 -40.357069 30.453543 95.248647 -84.571616 -77.645753 -10.512769 -21.884190 -5.404991 20.998488 8.866960 -11.154997 33.568426 5.512822 -4.680509 -52.247602 46.241486 -52.442199 16.304238 3.964549 -7.522678 
-19.697577 -23.962269 78.801826 -120.264571 9.746696 75.226275 15.907696 -1.578670 -28.123503 -9.283644 3.421472 67.793381 4.348359 4.151612 -30.149230 nan nan nan -18.636212 -7.888910 -17.577128 5.502184 -4.557581 42.343506 5.047884 0.359090 -8.986681 nan nan nan 1.245237 3.450535 22.171960 8.089767 -5.243695 2.089885 3.060299 -0.903739 -0.254296 1.404274 -23.520552 6.146978 3.751039 -25.042915 7.191316 -19.483810 -13.188661 -1.907205 -60.478497 -40.738973 30.691863 97.820351 -84.338388 -80.059799 -10.103194 -22.020559 -5.168443 21.013915 9.501721 -10.954551 32.798253 6.066944 -5.088515 -53.292505 45.432869 -53.026756 15.811936 4.223047 -7.306027 
-19.380854 -22.868679 78.407310 -119.610081 9.732468 75.290237 16.584186 -1.366815 -28.703614 -9.397432 3.305616 68.891248 4.116142 3.775172 -30.237181 nan nan nan -18.428656 -8.311148 -18.279761 5.792888 -4.338153 44.423687 4.565435 0.399232 -10.649983 nan nan nan 1.298648 3.285645 22.576891 8.121952 -5.380303 2.059151 3.123858 -0.804341 -0.430951 1.431643 -23.854794 5.894647 3.849532 -25.097555 7.327749 -19.795775 -13.788564 -1.757298 -60.713588 -41.013262 30.815221 99.195248 -83.989768 -81.673581 -9.588275 -22.542243 -5.553451 20.965175 10.099660 -10.735223 31.912482 6.555703 -5.748131 -53.914343 44.752148 -53.210634 15.120642 4.636917 -6.752838 
-19.049706 -21.789427 78.021034 -118.949205 9.850039 75.285231 17.348848 -1.124278 -29.237119 -9.627749 3.070410 69.998125 3.697545 3.424014 -30.219949 nan nan nan -18.141277 -8.649850 -18.918653 5.933298 -4.389636 46.508379 4.056629 0.674204 -12.274642 nan nan nan 1.502800 3.124987 23.044264 8.199556 -5.427058 2.017993 3.224750 -0.892864 -0.508325 1.513985 -24.241610 5.501096 3.793168 -25.122797 7.398335 -20.114852 -14.563242 -1.580457 -60.916105 -41.129283 30.869809 100.999331 -83.541905 -83.221617 -8.600214 -23.279270 -6.454556 20.743521 10.733931 -10.580592 31.041451 6.960061 -6.393277 -54.292919 44.386942 -53.160594 13.581816 5.071280 -6.555111 
-18.758205 -20.713533 77.685371 -118.380328 9.935078 75.075750 18.125756 -0.901407 -29.420001 -10.021298 2.873532 70.950653 3.243113 3.164219 -30.209193 nan nan nan -17.919037 -8.783163 -19.297224 6.022362 -4.690739 48.554051 3.620032 0.844994 -13.814003 nan nan nan 1.664954 3.024732 23.727143 8.256398 -5.314346 1.929039 3.375569 -1.135670 -0.587890 1.762062 -24.503420 5.044100 3.750767 -25.044227 7.467380 -20.540181 -15.263680 -1.361453 -61.064699 -41.227216 30.865993 102.385608 -83.324199 -84.185428 -8.170454 -23.728857 -7.003396 20.654080 11.336904 -10.380968 30.081199 7.399999 -6.980950 -54.590517 44.163854 -53.132660 11.986795 5.435877 -6.275461 
-18.522141 -19.654036 77.396835 -117.897605 9.967937 74.779051 18.803835 -0.571643 -29.405486 -10.384400 2.457909 71.692233 2.879623 2.939083 -30.235488 nan nan nan -17.774550 -8.780413 -19.435130 6.176793 -5.188200 50.360067 3.508651 0.820474 -15.232592 nan nan nan 1.749084 2.951222 24.339612 8.273194 -5.144701 1.949214 3.541321 -1.445214 -0.615712 1.889396 -24.671223 4.829524 3.981777 -25.066000 7.284806 -21.017707 -15.870115 -1.130132 -61.088417 -41.386503 30.751260 103.219673 -83.216488 -84.997603 -7.870188 -24.001715 -7.115758 20.621161 11.924757 -10.187331 29.190747 7.762332 -7.635988 -54.722027 44.084388 -53.489839 10.580698 6.089831 -6.265787 
-18.302031 -18.651270 77.122490 -117.517105 9.878142 74.520839 19.381000 -0.214082 -29.386359 -10.595276 2.072609 72.322836 2.537605 2.751408 -30.359411 nan nan nan -17.709081 -8.733290 -19.578283 6.323632 -5.731601 51.991255 3.427743 0.704072 -16.758589 nan nan nan 1.696067 2.843338 24.923970 8.233824 -4.976619 1.897026 3.659711 -1.630253 -0.617727 1.932429 -24.886276 4.697160 4.259888 -25.152800 7.275762 -21.428131 -16.218094 -0.823287 -61.104851 -41.744626 30.630625 103.899107 -83.202925 -85.900313 -7.359006 -24.148082 -7.079057 20.716412 12.441230 -9.790879 28.111865 8.254386 -8.548145 -54.671453 43.929158 -53.497623 10.041140 6.756293 -5.722625 
-18.082563 -17.719711 76.845123 -117.084901 9.671490 74.352512 19.892926 -0.035866 -29.466634 -10.741472 2.044472 72.893796 2.339121 2.611611 -30.415003 nan nan nan -17.814401 -8.851806 -19.755754 6.373136 -6.319999 53.623828 3.255991 0.765507 -18.204916 nan nan nan 1.575928 2.800352 25.501173 8.179128 -4.956672 1.705620 3.753683 -1.764027 -0.575990 2.059177 -25.082926 4.689065 4.607496 -25.246990 6.980703 -21.565208 -16.524363 -0.722718 -61.515331 -41.950582 30.820665 104.041404 -83.113841 -86.159392 -7.294444 -24.345165 -7.036383 20.784283 12.892455 -9.499498 27.244448 8.731684 -9.199731 -54.825855 43.662900 -53.554952 10.075448 7.070884 -5.064909 
-17.880997 -16.838938 76.594749 -116.571185 9.449986 74.181528 20.369633 -0.006891 -29.530407 -10.850490 2.229292 73.374616 2.347996 2.609232 -30.556617 nan nan nan -18.021166 -9.105495 -19.748240 6.346134 -6.923357 55.125488 2.978255 1.006693 -19.585220 nan nan nan 1.518434 2.794219 26.041413 8.149028 -5.083107 1.574410 3.811782 -1.900471 -0.550434 2.142970 -25.249639 4.762447 5.001651 -25.351982 6.414020 -21.610485 -16.905294 -0.617634 -61.849903 -42.159778 30.924880 103.605404 -83.055361 -85.933056 -7.035641 -24.717859 -7.118481 20.704162 13.307209 -9.368941 26.744635 9.124714 -9.709157 -55.167484 43.550650 -53.962011 9.621662 7.177093 -4.481075 
